<mxfile host="app.diagrams.net" modified="2024-04-01T01:13:19.373Z" agent="Mozilla/5.0 (Windows NT 10.0; Win64; x64) AppleWebKit/537.36 (KHTML, like Gecko) Chrome/123.0.0.0 Safari/537.36" etag="cI5lZVAs7v3mndTUkSbc" version="24.2.1" type="device">
  <diagram id="C5RBs43oDa-KdzZeNtuy" name="Page-1">
    <mxGraphModel dx="1434" dy="780" grid="1" gridSize="10" guides="1" tooltips="1" connect="1" arrows="1" fold="1" page="1" pageScale="1" pageWidth="827" pageHeight="1169" math="0" shadow="0">
      <root>
        <mxCell id="WIyWlLk6GJQsqaUBKTNV-0" />
        <mxCell id="WIyWlLk6GJQsqaUBKTNV-1" parent="WIyWlLk6GJQsqaUBKTNV-0" />
        <mxCell id="nNnNyw3XcxW_SEx2v4Bi-10" value="&lt;p style=&quot;margin: 4px 0px 0px; text-align: center; line-height: 150%; font-size: 13px;&quot;&gt;&lt;b style=&quot;&quot;&gt;&lt;font style=&quot;font-size: 13px;&quot; face=&quot;Verdana&quot;&gt;Iphone&lt;/font&gt;&lt;/b&gt;&lt;/p&gt;&lt;hr size=&quot;1&quot; style=&quot;border-style: solid; font-size: 13px;&quot;&gt;&lt;p style=&quot;margin: 0px 0px 0px 4px; line-height: 140%;&quot;&gt;&lt;font style=&quot;font-size: 12px;&quot; face=&quot;Verdana&quot;&gt;- aparelhoTelefonico: AparelhoTelefonico&lt;/font&gt;&lt;/p&gt;&lt;p style=&quot;margin: 0px 0px 0px 4px; line-height: 150%;&quot;&gt;&lt;font style=&quot;font-size: 12px;&quot; face=&quot;Verdana&quot;&gt;- reprodutorMusical: ReprodutorMusical&lt;/font&gt;&lt;/p&gt;&lt;p style=&quot;margin: 0px 0px 0px 4px; line-height: 150%;&quot;&gt;&lt;font style=&quot;font-size: 12px;&quot; face=&quot;Verdana&quot;&gt;- navegadorInternet: NavegadorInternet&lt;/font&gt;&lt;/p&gt;&lt;hr size=&quot;1&quot; style=&quot;border-style: solid; line-height: 150%;&quot;&gt;&lt;p style=&quot;margin: 0px 0px 0px 4px; line-height: 150%;&quot;&gt;&lt;font style=&quot;font-size: 12px;&quot; face=&quot;Verdana&quot;&gt;+ usarAparelhoTelefonico(): void&lt;br&gt;&lt;/font&gt;&lt;font style=&quot;font-size: 12px;&quot;&gt;&lt;font style=&quot;font-size: 12px;&quot; face=&quot;Verdana&quot;&gt;+ usarReprodutorMusical()&lt;/font&gt;&lt;span style=&quot;font-family: Verdana; background-color: initial;&quot;&gt;: void&lt;/span&gt;&lt;/font&gt;&lt;/p&gt;&lt;p style=&quot;margin: 0px 0px 0px 4px; line-height: 150%;&quot;&gt;&lt;font style=&quot;font-size: 12px;&quot; face=&quot;Verdana&quot;&gt;+ usarNavegadorInternet()&lt;/font&gt;&lt;span style=&quot;font-family: Verdana; background-color: initial;&quot;&gt;: void&lt;/span&gt;&lt;/p&gt;" style="verticalAlign=top;align=left;overflow=fill;html=1;whiteSpace=wrap;fillColor=#dae8fc;strokeColor=#6c8ebf;" vertex="1" parent="WIyWlLk6GJQsqaUBKTNV-1">
          <mxGeometry x="274" y="370" width="280" height="165" as="geometry" />
        </mxCell>
        <mxCell id="nNnNyw3XcxW_SEx2v4Bi-11" value="&lt;p style=&quot;margin: 4px 0px 0px; text-align: center; line-height: 150%;&quot;&gt;&lt;font face=&quot;Verdana&quot;&gt;&amp;lt;&amp;lt;Interface&amp;gt;&amp;gt;&lt;/font&gt;&lt;/p&gt;&lt;p style=&quot;margin: 4px 0px 0px; text-align: center; line-height: 150%;&quot;&gt;&lt;b style=&quot;&quot;&gt;&lt;font face=&quot;Verdana&quot;&gt;aparelhoTelefonico&lt;/font&gt;&lt;/b&gt;&lt;/p&gt;&lt;hr size=&quot;1&quot; style=&quot;border-style:solid;&quot;&gt;&lt;p style=&quot;margin: 0px 0px 0px 4px; line-height: 140%;&quot;&gt;&lt;font style=&quot;font-size: 12px;&quot;&gt;&lt;span style=&quot;font-family: Verdana; background-color: initial;&quot;&gt;+ ligar():&amp;nbsp;&lt;/span&gt;&lt;span style=&quot;font-family: Verdana; background-color: initial;&quot;&gt;void&lt;/span&gt;&lt;/font&gt;&lt;/p&gt;&lt;p style=&quot;margin: 0px 0px 0px 4px; line-height: 140%;&quot;&gt;&lt;span style=&quot;background-color: initial; font-family: Verdana;&quot;&gt;&lt;font style=&quot;font-size: 12px;&quot;&gt;+ atender(): void&lt;/font&gt;&lt;/span&gt;&lt;/p&gt;&lt;p style=&quot;margin: 0px 0px 0px 4px; line-height: 150%;&quot;&gt;&lt;font style=&quot;font-size: 12px;&quot; face=&quot;Verdana&quot;&gt;+ iniciarCorreioVoz(): void&lt;/font&gt;&lt;/p&gt;" style="verticalAlign=top;align=left;overflow=fill;html=1;whiteSpace=wrap;fillColor=#fff2cc;strokeColor=#d6b656;" vertex="1" parent="WIyWlLk6GJQsqaUBKTNV-1">
          <mxGeometry x="40" y="170" width="240" height="110" as="geometry" />
        </mxCell>
        <mxCell id="nNnNyw3XcxW_SEx2v4Bi-14" value="&lt;p style=&quot;margin: 4px 0px 0px; text-align: center; line-height: 150%;&quot;&gt;&lt;font face=&quot;Verdana&quot;&gt;&amp;lt;&amp;lt;Interface&amp;gt;&amp;gt;&lt;/font&gt;&lt;/p&gt;&lt;p style=&quot;margin: 4px 0px 0px; text-align: center; line-height: 150%;&quot;&gt;&lt;b style=&quot;&quot;&gt;&lt;font face=&quot;Verdana&quot;&gt;reprodutorMusical&lt;/font&gt;&lt;/b&gt;&lt;/p&gt;&lt;hr size=&quot;1&quot; style=&quot;border-style:solid;&quot;&gt;&lt;p style=&quot;margin: 0px 0px 0px 4px; line-height: 140%;&quot;&gt;&lt;font style=&quot;font-size: 12px;&quot;&gt;&lt;span style=&quot;font-family: Verdana; background-color: initial;&quot;&gt;+ tocar():&lt;/span&gt;&lt;span style=&quot;font-family: Verdana; background-color: initial;&quot;&gt;&amp;nbsp;void&lt;/span&gt;&lt;/font&gt;&lt;/p&gt;&lt;p style=&quot;margin: 0px 0px 0px 4px; line-height: 140%;&quot;&gt;&lt;span style=&quot;background-color: initial; font-family: Verdana;&quot;&gt;&lt;font style=&quot;font-size: 12px;&quot;&gt;+ pausar(): void&lt;/font&gt;&lt;/span&gt;&lt;/p&gt;&lt;p style=&quot;margin: 0px 0px 0px 4px; line-height: 150%;&quot;&gt;&lt;font style=&quot;font-size: 12px;&quot; face=&quot;Verdana&quot;&gt;+ selecionarMusica(): void&lt;/font&gt;&lt;/p&gt;" style="verticalAlign=top;align=left;overflow=fill;html=1;whiteSpace=wrap;fillColor=#ffe6cc;strokeColor=#d79b00;" vertex="1" parent="WIyWlLk6GJQsqaUBKTNV-1">
          <mxGeometry x="294" y="170" width="240" height="110" as="geometry" />
        </mxCell>
        <mxCell id="nNnNyw3XcxW_SEx2v4Bi-15" value="&lt;p style=&quot;margin: 4px 0px 0px; text-align: center; line-height: 150%;&quot;&gt;&lt;font face=&quot;Verdana&quot;&gt;&amp;lt;&amp;lt;Interface&amp;gt;&amp;gt;&lt;/font&gt;&lt;/p&gt;&lt;p style=&quot;margin: 4px 0px 0px; text-align: center; line-height: 150%;&quot;&gt;&lt;b style=&quot;&quot;&gt;&lt;font face=&quot;Verdana&quot;&gt;navegadorInternet&lt;/font&gt;&lt;/b&gt;&lt;/p&gt;&lt;hr size=&quot;1&quot; style=&quot;border-style:solid;&quot;&gt;&lt;p style=&quot;margin: 0px 0px 0px 4px; line-height: 140%;&quot;&gt;&lt;font style=&quot;font-size: 12px;&quot;&gt;&lt;span style=&quot;font-family: Verdana; background-color: initial;&quot;&gt;+ exbirPagina():&amp;nbsp;&lt;/span&gt;&lt;span style=&quot;font-family: Verdana; background-color: initial;&quot;&gt;void&lt;/span&gt;&lt;/font&gt;&lt;/p&gt;&lt;p style=&quot;margin: 0px 0px 0px 4px; line-height: 140%;&quot;&gt;&lt;span style=&quot;background-color: initial; font-family: Verdana;&quot;&gt;&lt;font style=&quot;font-size: 12px;&quot;&gt;+ adicionarNovaAba(): void&lt;/font&gt;&lt;/span&gt;&lt;/p&gt;&lt;p style=&quot;margin: 0px 0px 0px 4px; line-height: 150%;&quot;&gt;&lt;font style=&quot;font-size: 12px;&quot; face=&quot;Verdana&quot;&gt;+ atualizarPagina(): void&lt;/font&gt;&lt;/p&gt;" style="verticalAlign=top;align=left;overflow=fill;html=1;whiteSpace=wrap;fillColor=#f8cecc;strokeColor=#b85450;" vertex="1" parent="WIyWlLk6GJQsqaUBKTNV-1">
          <mxGeometry x="547" y="170" width="240" height="110" as="geometry" />
        </mxCell>
      </root>
    </mxGraphModel>
  </diagram>
</mxfile>
